<?xml version="1.0" encoding="utf-8"?>
<!-- Generator: Adobe Illustrator 16.0.0, SVG Export Plug-In . SVG Version: 6.00 Build 0)  -->
<!DOCTYPE svg PUBLIC "-//W3C//DTD SVG 1.1//EN" "http://www.w3.org/Graphics/SVG/1.1/DTD/svg11.dtd">
<svg version="1.1" id="Layer_1" xmlns="http://www.w3.org/2000/svg" xmlns:xlink="http://www.w3.org/1999/xlink" x="0px" y="0px"
	 width="800px" height="800px" viewBox="0 0 800 800" enable-background="new 0 0 800 800" xml:space="preserve">
<g id="izYop3.tif">
	<path fill-rule="evenodd" clip-rule="evenodd" fill="#994822" d="M459.923,173.059c-10.677-9.705-21.475-19.211-33.895-26.728
		c-13.808-8.356-103.748-51.2-126.717-51.994c-7.373-0.933-58.134-0.572-75.269,1.324c-14.434,1.596-28.637,5.597-42.826,9.015
		c-21.842,5.262-42.832,12.905-62.592,23.743c-15.935,8.74-30.405,19.563-44.593,30.837c-7.274,5.78-14.871,11.16-22.443,16.552
		c-1.651,1.176-3.813,1.635-5.739,2.425c-0.267-0.242-0.535-0.483-0.802-0.726c0.378-1.139,0.51-2.455,1.176-3.391
		c6.156-8.653,11.989-17.582,18.712-25.778c14.782-18.021,32.498-32.841,52.114-45.357c18.005-11.489,37.275-20.358,57.437-27.391
		c20.938-7.303,42.473-12.268,64.398-14.86c17.646-2.085,35.508-3.099,53.277-3.153c16.727-0.05,33.174,3.635,48.896,9.356
		c15.629,5.687,31.066,11.987,46.273,18.729c20.807,9.226,40.095,20.889,55.331,38.271c10.272,11.718,19.926,23.876,26.228,38.302
		c1.759,4.022,6.498,10.061,3.116,13.906C470.166,178.233,462.704,175.586,459.923,173.059z"/>
	<path fill-rule="evenodd" clip-rule="evenodd" fill="#994822" d="M751.287,419.23c-0.89-0.682-1.79-1.354-2.678-2.041
		c-13.009-10.078-26.311-19.802-38.951-30.321c-17.524-14.583-34.705-29.588-51.745-44.737
		c-17.271-15.354-34.406-30.878-51.188-46.761c-10.026-9.486-17.332-20.801-19.772-34.875c-2.064-11.921-8.182-40.425-33.063-68.072
		c-13.003-11.728-24.096-16.099-38.051-19c-16.854-2.355-17.55-0.637-23.943,2.028c-9.172,3.821-8.317,10.659-21.184,15.008
		c-15.224-0.725-16.282-5.651-23.715-13.25c-20.585-21.042-48.164-31.344-76.65-38.127c-22.464-5.35-45.255-6.98-68.262-5.448
		c-14.906,0.993-29.635,3.217-44.177,6.755c-23.603,5.742-45.92,14.597-66.916,26.814c-17.348,10.095-32.817,22.519-46.927,36.784
		c-20.008,20.229-38.547,41.536-51.458,67.163c-5.969,11.847-10.336,24.262-12.061,37.47c-0.364,2.79-1.051,5.828,1.016,9.078
		c1.021-0.937,1.847-1.429,2.3-2.154c3.289-5.267,7.01-10.342,9.635-15.929c5.278-11.238,10.952-22.203,18.539-32.06
		c14.364-18.662,30.793-35.27,49.697-49.373c12.298-9.176,25.34-17.202,40.351-20.794c9.973-2.387,20.315-3.745,30.563-4.342
		c19.816-1.155,39.68-1.593,59.531-2.032c9.14-0.202,18.364,0.652,26.701,4.628c12.255,5.844,24.372,12.041,36.178,18.739
		c5.884,3.338,11.216,7.822,16.287,12.358c1.947,4.668-2.291,6.257-4.123,7.189c-4.524,2.564-8.453,4.296-12.413,7.708
		c-12.231,10.542-20.749,17.44-32.303,28.693c-11.926,11.616-23.291,23.878-34.146,36.505
		c-11.528,13.408-19.884,29.018-27.428,44.919c-10.986,23.155-21.783,46.416-31.959,69.935
		c-7.334,16.952-13.771,34.31-20.129,51.661c-3.613,9.861-6.62,19.982-9.259,30.152c-3.438,13.25-4.067,26.916-4.081,40.523
		c-0.042,41.365,163.524,203.236,168.691,185.197c7.848-27.396,15.269-54.926,22.251-82.553c3.751-14.838,6.513-29.951,9.147-45.041
		c2.025-11.604,4.664-22.904,11.451-32.703c11.693-16.881,25.052-32.312,40.906-45.477c6.111-5.078,12.705-8.006,21.062-7.295
		c12.801,1.088,25.234,3.822,37.679,6.717c15.261,3.547,30.602,6.512,46.369,6.518c2.847,0,5.729,0.213,8.531,0.686
		c6.319,1.068,8.104,3.121,7.844,9.543c-0.323,7.979-3.715,14.74-8.981,20.66c-1.56,1.752-7.523,6.48-9.364,8.957
		c2.267,0.41,8.22-1.994,9.502-1.867c7.162,0.703,43.69-11.072,59.819-18.521c59.217-19.152,61.711-12.504,62.526-23.922
		c-69.547,4.471-131.746-65.531-104.266-69.322c0.33-0.045,32.374,23.5,37.783,25.787c25.324,10.711,20.596,7.287,45.154,15.387
		c37.645,12.416,64.785,6.746,73.251,2.594c5.398-5.906,11.196-46.088,7.884-49.76c-2.519-2.791,3.548-2.75,4.974-6.08
		c5.756-13.428-0.52,0.93,6.155-13.355C756.15,425.294,755.489,422.451,751.287,419.23z M553.932,300.994
		c-11.789,1.5-14.535-0.108-36.193,0.482c-19.691,0.538-35.02-10.32-32.709-18.944c2.312-8.624,20.432-11.262,39.459-6.164
		C543.516,281.467,562.788,299.867,553.932,300.994z"/>
</g>
</svg>
