<?xml version="1.0" encoding="utf-8"?>
<!-- Generator: Adobe Illustrator 16.0.0, SVG Export Plug-In . SVG Version: 6.00 Build 0)  -->
<!DOCTYPE svg PUBLIC "-//W3C//DTD SVG 1.1//EN" "http://www.w3.org/Graphics/SVG/1.1/DTD/svg11.dtd">
<svg version="1.1" id="Layer_1" xmlns="http://www.w3.org/2000/svg" xmlns:xlink="http://www.w3.org/1999/xlink" x="0px" y="0px"
	 width="1000px" height="1000px" viewBox="0 0 1000 1000" enable-background="new 0 0 1000 1000" xml:space="preserve">
<g>
	<defs>
		<rect id="SVGID_1_" width="1000" height="1000"/>
	</defs>
	<clipPath id="SVGID_2_">
		<use xlink:href="#SVGID_1_"  overflow="visible"/>
	</clipPath>
	<g clip-path="url(#SVGID_2_)">
		<path fill="#FFFFFE" d="M-133.799,1000c0-333.3,0-666.597,0-1000c421.833,0,843.713,0,1265.77,0c0,333.264,0,666.631,0,1000
			C710.151,1000,288.202,1000-133.799,1000z M93.72,154.009c-0.097,3.032,1.312,8.034,3.093,12.929
			c9.916,27.257,19.877,54.497,29.831,81.74c17.374,47.558,34.762,95.111,52.129,142.672
			c13.455,36.852,26.872,73.718,40.331,110.568c17.426,47.717,34.873,95.427,52.313,143.14
			c8.924,24.405,17.743,48.852,26.817,73.202c5.766,15.475,15.709,27.562,30.283,35.661c10.749,5.972,21.681,6.496,32.7,0.984
			c14.063-7.035,23.977-18.128,30.509-32.279c2.033-4.401,3.534-9.055,5.201-13.622c14.882-40.791,29.721-81.602,44.618-122.388
			c17.546-48.033,35.152-96.042,52.705-144.07c20.426-55.903,40.818-111.819,61.239-167.725
			c11.104-30.394,22.35-60.735,33.285-91.188c3.332-9.272,7.711-18.238,8.903-28.22c2.226-18.629-10.223-31.303-28.842-29.281
			c-7.038,0.766-13.649,3.294-19.733,7.086c-13.629,8.491-23.013,20.283-28.204,35.493c-13.047,38.241-26.158,76.459-39.252,114.684
			c-12.06,35.211-24.136,70.416-36.198,105.626c-16.789,49.009-33.583,98.018-50.354,147.033
			c-11.504,33.632-22.956,67.277-34.463,100.908c-1.794,5.239-3.678,10.47-7.148,14.904c-4.618,5.902-9.711,6.068-14.759,0.505
			c-3.108-3.427-4.882-7.604-6.375-11.896c-3.861-11.083-7.662-22.187-11.465-33.288c-16.304-47.581-32.602-95.166-48.898-142.749
			c-16.895-49.328-33.791-98.655-50.679-147.985c-15.638-45.683-31.226-91.384-46.935-137.041
			c-2.452-7.121-4.27-14.526-8.042-21.125c-9.623-16.833-23.188-28.541-42.793-32c-7.024-1.239-13.753-0.041-19.68,4.095
			C96.466,135.538,93.786,143.039,93.72,154.009z M501.291,718.859c5.532,0.081,10.709-0.493,15.877-0.661
			c8.728-0.285,17.399-1.128,25.969-2.473c19.533-3.064,38.668-7.733,57.284-14.653c33.555-12.473,63.815-30.395,90.434-54.241
			c17.771-15.925,33.678-33.627,46.909-53.603c15.838-23.905,28.153-49.442,36.497-76.935c8.228-27.123,12.015-54.872,12.174-83.115
			c0.054-9.002-0.729-18.033-1.627-27.036c-1.209-12.171-3.131-24.192-5.889-36.099c-6.126-26.45-15.707-51.542-29.071-75.206
			c-11.766-20.834-25.971-39.824-42.35-57.221c-8.059-8.559-16.839-16.349-25.892-23.82c-8.016-6.614-16.438-12.702-25.2-18.302
			c-2.961-1.89-3.498-1.734-4.7,1.499c-1.867,5.025-3.459,10.155-5.394,15.151c-1.055,2.725-0.275,4.164,2.074,5.779
			c10.223,7.022,20.1,14.529,29.227,22.941c18.964,17.489,35.299,37.136,48.553,59.338c15.79,26.462,26.527,54.817,32.339,85.05
			c1.545,8.043,2.633,16.156,3.327,24.335c0.809,9.508,2.055,19.061,1.396,28.54c-0.521,7.498-0.533,15.025-1.419,22.535
			c-1.392,11.814-3.123,23.539-5.958,35.073c-5.423,22.061-13.469,43.108-24.369,63.097c-11.385,20.886-25.396,39.799-41.687,57.058
			c-6.334,6.709-13.309,12.736-20.352,18.697c-15.299,12.952-31.918,23.903-49.77,32.941c-20.12,10.185-41.224,17.714-63.338,22.249
			c-13.608,2.793-27.325,4.639-41.247,5.328c-9.048,0.445-18.031,0.955-27.051-0.114c-1.657-0.196-3.354-0.04-5.031-0.107
			c-1.709-0.069-2.847,0.536-3.433,2.259c-1.835,5.394-3.837,10.731-5.604,16.146c-1.084,3.325-0.389,4.522,3.063,4.499
			C485.259,717.735,493.396,719.352,501.291,718.859z M723.416,437.703c0.007,5.929,0.081,14.993-1.246,23.973
			c-0.826,5.619-1.805,11.221-2.896,16.795c-5.087,25.941-14.895,50.027-28.701,72.523c-12.655,20.621-28.591,38.371-46.991,54.01
			c-13.366,11.359-28.062,20.674-43.678,28.514c-11.703,5.875-23.999,10.348-36.552,14.09c-13.514,4.029-27.351,6.562-41.35,7.754
			c-7.983,0.679-16.013,1.532-24.086,1.177c-4.374-0.192-4.379,0.01-5.914,4.384c-1.278,3.637-2.516,7.286-3.86,10.897
			c-2.549,6.836-2.06,7.665,5.464,7.727c7.367,0.06,14.715-0.119,22.092-0.59c9.71-0.622,19.331-1.664,28.89-3.328
			c20.895-3.636,40.987-9.916,60.22-18.858c32.092-14.92,59.65-35.82,82.759-62.66c12.42-14.425,23.072-30.014,31.815-46.897
			c9.989-19.292,17.403-39.532,21.949-60.802c2.697-12.616,4.507-25.336,5.124-38.242c0.441-9.198,0.186-18.375,0.025-27.567
			c-0.099-5.554-0.735-11.054-1.437-16.505c-1.619-12.607-4.1-25.062-7.636-37.318c-6.129-21.239-14.93-41.278-26.363-60.158
			c-12.692-20.963-28.567-39.312-46.713-55.694c-6.832-6.169-13.98-12.018-21.744-17.032c-2.911-1.878-3.041-1.873-4.157,1.269
			c-1.851,5.212-3.511,10.492-5.381,15.696c-1.017,2.829-0.173,4.472,2.239,6.315c11.328,8.657,21.929,18.083,31.46,28.797
			c14.827,16.664,27.12,34.877,36.415,55.155C716.766,370.806,723.89,401.864,723.416,437.703z M885.449,448.082
			c-13.763,0-27.527,0.081-41.288-0.043c-4.714-0.042-8.379,1.743-11.61,5.003c-7.623,7.699-6.894,21.607-1.258,28.815
			c3.159,4.041,7.285,6.399,12.525,6.402c27.691,0.016,55.385,0.023,83.076-0.009c4.388-0.003,8.147-1.599,11.198-4.846
			c5.699-6.07,6.858-13.349,5.063-21.059c-2.258-9.687-8.475-14.257-18.436-14.264C911.63,448.072,898.54,448.08,885.449,448.082z
			 M782.951,249.727c4.49,0.299,7.939-1.806,11.039-4.905c14.474-14.47,28.974-28.913,43.508-43.324
			c3.21-3.182,6.693-6.087,9.874-9.297c5.007-5.052,6.028-11.02,3.424-17.585c-2.818-7.105-7.85-11.998-15.069-14.517
			c-6.412-2.237-12.118-1.285-17.043,3.763c-6.442,6.603-13.057,13.04-19.595,19.551c-11.409,11.364-22.79,22.759-34.246,34.078
			c-2.757,2.723-4.231,5.708-4.443,9.717C759.813,238.391,771.943,250.515,782.951,249.727z M735.025,675.584
			c-9.672-0.107-16.008,4.388-20.609,11.167c-4.034,5.941-4.8,12.259,0.053,18.624c5.777,7.581,11.153,15.47,16.698,23.231
			c7.974,11.163,15.887,22.372,23.939,33.48c3.821,5.268,9.052,7.069,15.475,5.712c5.272-1.115,9.658-3.687,13.393-7.461
			c6.992-7.069,7.805-14.957,2.092-23.01c-13.261-18.698-26.646-37.306-39.963-55.963
			C743.141,677.219,739.34,674.922,735.025,675.584z M601.872,886.81c1.058,6.409,0.677,14.637-0.9,19.804
			c-2.402,7.862-8.439,12.629-16.538,13.14c-6.403,0.402-12.284-0.654-17.348-5.064c-2.33-2.029-4.074-1.362-6.086,1.524
			c-1.604,2.305,0.676,3.002,1.763,3.892c7.717,6.313,16.727,7.44,26.118,5.63c10.113-1.952,16.613-8.208,19.507-18.127
			c1.182-4.048,1.62-8.204,1.623-12.409c0.008-21.122,0.003-42.246,0.003-63.369c0-1.007-0.012-2.015-0.02-3.02
			c-0.018-2.047-0.948-2.931-3.087-2.995c-3.979-0.123-4.29,0.068-4.511,3.938c-0.063,1.093,0.466,2.305-0.477,3.279
			c-1.251,0.097-1.704-0.975-2.418-1.591c-14.548-12.592-35.678-6.026-40.495,12.57c-2.574,9.938-2.472,19.941-0.448,29.891
			c1.477,7.264,4.577,13.929,11.623,17.359c9.806,4.771,19.457,4.084,28.53-2.252C599.755,888.281,600.353,886.884,601.872,886.81z
			 M457.458,861.938c6.711,0,13.423,0.045,20.133-0.019c3.471-0.035,3.641-0.204,3.606-3.775c-0.051-5.052-0.725-10.053-2.39-14.826
			c-5.66-16.243-23.23-22.981-38.022-14.741c-6.998,3.896-10.394,10.348-12.342,17.613c-2.469,9.222-2.329,18.613-0.069,27.855
			c2.063,8.43,6.715,15.15,15.199,18.09c11.908,4.129,23.148,2.444,33.274-5.258c3.254-2.472,3.011-3.543-0.357-5.914
			c-1.997-1.402-3.066-0.109-4.347,0.917c-5.501,4.408-11.739,6.188-18.777,5.658c-9.37-0.708-15.665-5.789-17.906-14.907
			c-0.558-2.272-0.902-4.61-1.148-6.938c-0.35-3.307,0.011-3.699,3.515-3.735C444.372,861.894,450.915,861.939,457.458,861.938z
			 M653.602,883.39c-1.417-1.663-1.705-2.979-2.137-4.238c-5.58-16.323-11.174-32.642-16.777-48.957
			c-1.562-4.542-1.782-4.671-6.412-4.337c-2.661,0.192-3.056,0.604-2.219,3.047c1.465,4.277,3.101,8.495,4.65,12.745
			c5.797,15.891,11.559,31.792,17.411,47.66c0.972,2.636,1.295,5.143,0.273,7.812c-1.373,3.6-2.694,7.219-3.955,10.858
			c-2.049,5.897-5.412,10.009-12.366,9.529c-3.352-0.23-2.5,2.48-2.767,4.228c-0.342,2.25,1.373,2.259,2.946,2.314
			c8.817,0.312,14.809-3.604,18.021-12.309c9.915-26.867,19.719-53.772,29.521-80.682c1.82-4.992,1.046-5.726-4.288-5.259
			c-2.32,0.203-2.581,1.777-3.111,3.311c-4.1,11.873-8.162,23.758-12.263,35.633C658.062,870.74,655.938,876.717,653.602,883.39z
			 M359.972,826.513c-0.531,2.62,1.15,4.759,1.97,7.054c6.829,19.083,13.851,38.101,20.625,57.206
			c0.991,2.792,2.457,3.441,5.155,3.48c2.68,0.04,3.773-1.028,4.63-3.428c7.101-19.878,14.346-39.704,21.502-59.562
			c1.849-5.131,0.822-6.19-4.538-5.435c-2.325,0.328-2.4,2.112-2.903,3.575c-5.5,16.003-10.93,32.029-16.392,48.047
			c-0.715,2.099-1.314,4.26-2.814,6.582c-0.92-2.603-1.659-4.64-2.359-6.69c-5.352-15.698-10.692-31.401-16.048-47.1
			c-1.552-4.552-1.571-4.546-6.376-4.385C361.592,825.885,360.743,825.846,359.972,826.513z M265.412,826.4
			c-0.598,1.226,0.002,2.286,0.396,3.382c4.203,11.656,8.38,23.322,12.608,34.97c3.199,8.814,6.465,17.605,9.689,26.411
			c0.458,1.256,0.745,2.526,2.36,2.938c3.755,0.966,6.019-0.106,7.367-3.821c7.141-19.676,14.271-39.355,21.359-59.051
			c1.831-5.086,0.762-6.19-4.577-5.394c-2.571,0.384-2.485,2.493-3.03,4.072c-5.464,15.828-10.833,31.689-16.239,47.541
			c-0.714,2.099-1.307,4.261-2.828,6.607c-0.634-1.832-1.075-3.084-1.504-4.342c-5.625-16.482-11.246-32.968-16.877-49.447
			c-1.561-4.565-1.58-4.56-6.358-4.41C266.943,825.883,266.097,825.848,265.412,826.4z M512.09,832.337
			c-1.15-0.942-0.599-2.188-0.711-3.278c-0.329-3.176-0.491-3.171-4.19-3.256c-2.634-0.058-3.479,0.94-3.47,3.518
			c0.069,20.452,0.019,40.905,0.06,61.357c0.008,3.355,0.304,3.505,3.896,3.486c3.472-0.019,3.626-0.094,3.671-3.717
			c0.07-5.531-0.002-11.062,0.024-16.597c0.04-8.38-0.272-16.781,0.25-25.134c0.893-14.245,14.973-21.412,27.124-14.104
			c3.712,2.231,3.626,2.15,6.492-0.795c1.58-1.627,1.47-2.573-0.321-3.948c-7.926-6.085-21.684-6.028-29.673,0.222
			C514.232,830.879,513.59,832.235,512.09,832.337z M336.567,860.016c0,3.688,0,7.376,0,11.063
			c0.002,6.539-0.021,13.078,0.024,19.617c0.009,1.249-0.405,2.733,1.406,3.338c3.854,1.287,6.09-0.172,6.179-4.107
			c0.007-0.334,0.001-0.671,0.001-1.007c0-19.278,0.001-38.558-0.004-57.84c0-1.172-0.022-2.346-0.104-3.515
			c-0.065-0.941-0.639-1.424-1.566-1.663c-4.141-1.077-5.915,0.195-5.927,4.435C336.548,840.23,336.567,850.122,336.567,860.016z
			 M340.198,802.516c4.864,0.031,4.864,0.031,4.88-4.395c0.016-4.449,0.016-4.449-4.283-4.499c-5.1-0.061-5.107-0.056-5.159,4.15
			C335.577,802.465,335.597,802.487,340.198,802.516z"/>
		<path fill-rule="evenodd" clip-rule="evenodd" fill="#79A4CE" d="M93.72,154.009c0.066-10.971,2.746-18.472,10.135-23.625
			c5.926-4.135,12.655-5.333,19.68-4.095c19.606,3.459,33.17,15.167,42.793,32c3.772,6.599,5.59,14.004,8.042,21.125
			c15.709,45.657,31.297,91.358,46.935,137.041c16.888,49.33,33.784,98.657,50.679,147.985
			c16.296,47.583,32.594,95.168,48.898,142.749c3.803,11.102,7.604,22.205,11.465,33.288c1.494,4.291,3.267,8.469,6.375,11.896
			c5.048,5.563,10.141,5.397,14.759-0.505c3.47-4.435,5.354-9.665,7.148-14.904c11.507-33.631,22.959-67.276,34.463-100.908
			c16.771-49.016,33.565-98.024,50.354-147.033c12.062-35.211,24.139-70.416,36.198-105.626
			c13.094-38.225,26.205-76.443,39.252-114.684c5.191-15.21,14.575-27.002,28.204-35.493c6.084-3.792,12.695-6.32,19.733-7.086
			c18.619-2.022,31.067,10.652,28.842,29.281c-1.192,9.982-5.571,18.948-8.903,28.22c-10.936,30.453-22.182,60.794-33.285,91.188
			c-20.421,55.906-40.813,111.821-61.239,167.725c-17.553,48.029-35.159,96.037-52.705,144.07
			c-14.897,40.786-29.736,81.597-44.618,122.388c-1.667,4.567-3.167,9.221-5.201,13.622c-6.532,14.151-16.446,25.244-30.509,32.279
			c-11.019,5.512-21.951,4.987-32.7-0.984c-14.574-8.1-24.517-20.187-30.283-35.661c-9.074-24.351-17.893-48.797-26.817-73.202
			c-17.44-47.713-34.888-95.423-52.313-143.14c-13.459-36.851-26.876-73.717-40.331-110.568
			c-17.367-47.561-34.755-95.114-52.129-142.672c-9.954-27.244-19.915-54.483-29.831-81.74
			C95.032,162.043,93.623,157.041,93.72,154.009z"/>
		<path fill-rule="evenodd" clip-rule="evenodd" fill="#FBD28F" d="M501.291,718.859c-7.895,0.492-16.032-1.124-24.258-1.07
			c-3.453,0.023-4.148-1.174-3.063-4.499c1.767-5.414,3.769-10.752,5.604-16.146c0.586-1.723,1.724-2.328,3.433-2.259
			c1.677,0.067,3.374-0.089,5.031,0.107c9.02,1.069,18.003,0.56,27.051,0.114c13.922-0.689,27.639-2.535,41.247-5.328
			c22.114-4.535,43.218-12.064,63.338-22.249c17.852-9.038,34.471-19.989,49.77-32.941c7.043-5.961,14.018-11.988,20.352-18.697
			c16.29-17.259,30.302-36.172,41.687-57.058c10.9-19.988,18.946-41.036,24.369-63.097c2.835-11.535,4.566-23.259,5.958-35.073
			c0.886-7.51,0.898-15.037,1.419-22.535c0.659-9.479-0.587-19.032-1.396-28.54c-0.694-8.179-1.782-16.292-3.327-24.335
			c-5.812-30.232-16.549-58.588-32.339-85.05c-13.254-22.202-29.589-41.85-48.553-59.338c-9.127-8.412-19.004-15.918-29.227-22.941
			c-2.35-1.615-3.129-3.054-2.074-5.779c1.935-4.997,3.526-10.126,5.394-15.151c1.202-3.233,1.739-3.389,4.7-1.499
			c8.762,5.601,17.185,11.688,25.2,18.302c9.053,7.471,17.833,15.261,25.892,23.82c16.379,17.396,30.584,36.387,42.35,57.221
			c13.364,23.665,22.945,48.756,29.071,75.206c2.758,11.907,4.68,23.928,5.889,36.099c0.898,9.003,1.681,18.034,1.627,27.036
			c-0.159,28.243-3.946,55.992-12.174,83.115c-8.344,27.492-20.659,53.029-36.497,76.935
			c-13.231,19.976-29.138,37.678-46.909,53.603c-26.618,23.847-56.879,41.769-90.434,54.241
			c-18.616,6.92-37.751,11.589-57.284,14.653c-8.569,1.345-17.241,2.188-25.969,2.473C512,718.366,506.823,718.94,501.291,718.859z"
			/>
		<path fill-rule="evenodd" clip-rule="evenodd" fill="#FBD28F" d="M723.416,437.703c0.474-35.838-6.65-66.896-20.252-96.575
			c-9.295-20.278-21.588-38.491-36.415-55.155c-9.531-10.714-20.132-20.14-31.46-28.797c-2.412-1.843-3.256-3.487-2.239-6.315
			c1.87-5.205,3.53-10.484,5.381-15.696c1.116-3.142,1.246-3.147,4.157-1.269c7.764,5.014,14.912,10.862,21.744,17.032
			c18.146,16.382,34.021,34.73,46.713,55.694c11.434,18.88,20.234,38.919,26.363,60.158c3.536,12.257,6.017,24.711,7.636,37.318
			c0.701,5.451,1.338,10.951,1.437,16.505c0.16,9.192,0.416,18.369-0.025,27.567c-0.617,12.906-2.427,25.626-5.124,38.242
			c-4.546,21.27-11.96,41.51-21.949,60.802c-8.743,16.884-19.396,32.473-31.815,46.897c-23.108,26.84-50.667,47.74-82.759,62.66
			c-19.232,8.942-39.325,15.223-60.22,18.858c-9.559,1.664-19.18,2.706-28.89,3.328c-7.377,0.471-14.725,0.649-22.092,0.59
			c-7.524-0.062-8.013-0.891-5.464-7.727c1.345-3.611,2.583-7.261,3.86-10.897c1.535-4.374,1.54-4.576,5.914-4.384
			c8.073,0.355,16.103-0.498,24.086-1.177c13.999-1.192,27.836-3.725,41.35-7.754c12.553-3.742,24.849-8.215,36.552-14.09
			c15.615-7.84,30.312-17.154,43.678-28.514c18.4-15.639,34.336-33.389,46.991-54.01c13.807-22.496,23.614-46.582,28.701-72.523
			c1.091-5.574,2.069-11.176,2.896-16.795C723.497,452.695,723.423,443.632,723.416,437.703z"/>
		<path fill-rule="evenodd" clip-rule="evenodd" fill="#FBD291" d="M885.449,448.08c13.091,0,26.181-0.008,39.271,0.002
			c9.961,0.006,16.178,4.577,18.436,14.264c1.795,7.71,0.636,14.988-5.063,21.059c-3.051,3.248-6.811,4.843-11.198,4.846
			c-27.691,0.032-55.385,0.024-83.076,0.009c-5.24-0.003-9.366-2.361-12.525-6.402c-5.636-7.208-6.365-21.116,1.258-28.815
			c3.231-3.261,6.896-5.045,11.61-5.003C857.922,448.163,871.687,448.082,885.449,448.08z M885.424,476.271
			c12.924,0,25.85,0.009,38.775-0.01c1.813-0.003,3.68,0.29,5.224-1.19c2.272-2.178,3.185-7.278,1.82-10.891
			c-1.236-3.274-2.594-4.091-7.096-4.095c-17.96-0.015-35.92-0.006-53.884-0.006c-8.057,0-16.112-0.006-24.17,0.007
			c-1.659,0.003-3.328-0.175-4.724,1.166c-2.269,2.175-3.185,7.301-1.819,10.895c1.241,3.269,2.634,4.113,7.099,4.119
			C859.575,476.283,872.5,476.271,885.424,476.271z"/>
		<path fill-rule="evenodd" clip-rule="evenodd" fill="#FBD291" d="M782.951,249.727c-11.008,0.788-23.138-11.336-22.552-22.519
			c0.212-4.009,1.687-6.995,4.443-9.717c11.456-11.319,22.837-22.714,34.246-34.078c6.538-6.511,13.152-12.948,19.595-19.551
			c4.925-5.048,10.631-6,17.043-3.763c7.22,2.52,12.251,7.412,15.069,14.517c2.604,6.565,1.583,12.533-3.424,17.585
			c-3.181,3.209-6.664,6.115-9.874,9.297c-14.534,14.411-29.034,28.854-43.508,43.324
			C790.891,247.921,787.441,250.026,782.951,249.727z M840.048,179.407c-0.807-3.509-3.812-6.347-7.988-8.304
			c-3.547-1.661-5.268,0.949-7.223,2.89c-16.652,16.538-33.274,33.106-49.898,49.674c-3.474,3.463-3.879,5.721-0.828,9.449
			c4.016,4.905,8.294,7.464,14.03,1.533c15.96-16.509,32.437-32.519,48.708-48.726c0.714-0.711,1.401-1.444,2.121-2.146
			C839.87,182.896,840.229,181.828,840.048,179.407z"/>
		<path fill-rule="evenodd" clip-rule="evenodd" fill="#FBD291" d="M735.025,675.584c4.314-0.662,8.115,1.635,11.077,5.781
			c13.317,18.657,26.702,37.265,39.963,55.963c5.713,8.053,4.9,15.94-2.092,23.01c-3.734,3.774-8.12,6.346-13.393,7.461
			c-6.423,1.357-11.653-0.444-15.475-5.712c-8.053-11.108-15.966-22.317-23.939-33.48c-5.545-7.762-10.921-15.65-16.698-23.231
			c-4.853-6.365-4.087-12.683-0.053-18.624C719.018,679.972,725.354,675.477,735.025,675.584z M766.677,756.501
			c5.31-0.23,8.33-2.716,10.784-6.096c1.323-1.824,1.358-3.694-0.013-5.573c-1.78-2.436-3.498-4.914-5.254-7.365
			c-11.216-15.669-22.406-31.356-33.671-46.991c-3.216-4.465-4.754-4.678-9.559-2.1c-2.132,1.143-3.787,2.765-5.193,4.664
			c-1.311,1.774-1.625,3.588-0.123,5.507c1.549,1.978,2.995,4.036,4.459,6.081c11.697,16.354,23.405,32.7,35.051,49.091
			C764.299,755.324,765.36,756.69,766.677,756.501z"/>
		<path fill-rule="evenodd" clip-rule="evenodd" fill="#7EA8D0" d="M601.872,886.81c-1.52,0.074-2.117,1.472-3.16,2.199
			c-9.073,6.336-18.725,7.022-28.53,2.252c-7.046-3.431-10.146-10.096-11.623-17.359c-2.023-9.949-2.126-19.953,0.448-29.891
			c4.817-18.597,25.947-25.162,40.495-12.57c0.714,0.616,1.167,1.688,2.418,1.591c0.942-0.975,0.413-2.187,0.477-3.279
			c0.221-3.869,0.531-4.061,4.511-3.938c2.139,0.064,3.069,0.948,3.087,2.995c0.008,1.005,0.02,2.013,0.02,3.02
			c0,21.123,0.005,42.247-0.003,63.369c-0.003,4.205-0.441,8.361-1.623,12.409c-2.894,9.919-9.394,16.175-19.507,18.127
			c-9.392,1.811-18.401,0.684-26.118-5.63c-1.087-0.89-3.367-1.587-1.763-3.892c2.012-2.887,3.756-3.554,6.086-1.524
			c5.063,4.41,10.944,5.467,17.348,5.064c8.099-0.511,14.136-5.277,16.538-13.14C602.549,901.446,602.93,893.219,601.872,886.81z
			 M564.864,859.176c-0.04,6.725,0.064,13.418,3.372,19.574c1.967,3.662,4.583,6.544,8.632,7.961
			c9.869,3.454,20.309-0.48,23.466-11.551c2.867-10.048,2.923-20.152,0.326-30.24c-2.304-8.959-7.886-13.177-17.06-13.188
			c-9.181-0.009-14.832,4.272-17.319,12.998C564.926,849.472,564.91,854.32,564.864,859.176z"/>
		<path fill-rule="evenodd" clip-rule="evenodd" fill="#7EA8D0" d="M457.458,861.938c-6.544,0.001-13.087-0.045-19.63,0.019
			c-3.504,0.036-3.865,0.429-3.515,3.735c0.246,2.328,0.591,4.666,1.148,6.938c2.241,9.118,8.537,14.199,17.906,14.907
			c7.039,0.529,13.276-1.25,18.777-5.658c1.28-1.026,2.35-2.319,4.347-0.917c3.368,2.371,3.611,3.442,0.357,5.914
			c-10.126,7.702-21.367,9.387-33.274,5.258c-8.484-2.939-13.136-9.66-15.199-18.09c-2.26-9.242-2.4-18.634,0.069-27.855
			c1.948-7.266,5.344-13.717,12.342-17.613c14.792-8.24,32.362-1.502,38.022,14.741c1.665,4.773,2.339,9.774,2.39,14.826
			c0.035,3.571-0.135,3.74-3.606,3.775C470.881,861.982,464.169,861.938,457.458,861.938z M453.709,855.849
			c5.347,0,10.696,0.048,16.044-0.018c3.765-0.044,3.916-0.23,3.736-4.063c-0.171-3.717-1.067-7.259-2.887-10.533
			c-6.282-11.307-22.997-13.034-31.131-3.163c-3.535,4.29-4.767,9.465-5.243,14.877c-0.193,2.195,0.828,2.948,2.933,2.92
			C442.676,855.798,448.193,855.844,453.709,855.849z"/>
		<path fill-rule="evenodd" clip-rule="evenodd" fill="#7EA8D0" d="M653.602,883.39c2.337-6.673,4.46-12.649,6.528-18.644
			c4.101-11.875,8.163-23.76,12.263-35.633c0.53-1.533,0.791-3.107,3.111-3.311c5.334-0.467,6.108,0.267,4.288,5.259
			c-9.803,26.909-19.606,53.814-29.521,80.682c-3.212,8.704-9.203,12.62-18.021,12.309c-1.573-0.056-3.288-0.064-2.946-2.314
			c0.267-1.747-0.585-4.458,2.767-4.228c6.954,0.479,10.317-3.632,12.366-9.529c1.261-3.64,2.582-7.259,3.955-10.858
			c1.021-2.67,0.698-5.177-0.273-7.812c-5.853-15.868-11.614-31.77-17.411-47.66c-1.55-4.25-3.186-8.468-4.65-12.745
			c-0.837-2.443-0.442-2.854,2.219-3.047c4.63-0.334,4.851-0.205,6.412,4.337c5.604,16.315,11.197,32.634,16.777,48.957
			C651.896,880.41,652.185,881.727,653.602,883.39z"/>
		<path fill-rule="evenodd" clip-rule="evenodd" fill="#7EA8D0" d="M359.972,826.513c0.771-0.667,1.62-0.628,2.452-0.655
			c4.805-0.161,4.824-0.167,6.376,4.385c5.356,15.698,10.696,31.401,16.048,47.1c0.7,2.051,1.439,4.088,2.359,6.69
			c1.5-2.322,2.099-4.483,2.814-6.582c5.461-16.018,10.892-32.044,16.392-48.047c0.502-1.463,0.578-3.247,2.903-3.575
			c5.36-0.756,6.387,0.304,4.538,5.435c-7.157,19.858-14.401,39.685-21.502,59.562c-0.857,2.399-1.951,3.468-4.63,3.428
			c-2.699-0.039-4.164-0.688-5.155-3.48c-6.774-19.105-13.796-38.123-20.625-57.206
			C361.122,831.271,359.441,829.133,359.972,826.513z"/>
		<path fill-rule="evenodd" clip-rule="evenodd" fill="#7EA8D0" d="M265.412,826.4c0.686-0.553,1.532-0.518,2.367-0.543
			c4.779-0.149,4.797-0.155,6.358,4.41c5.631,16.479,11.252,32.965,16.877,49.447c0.429,1.258,0.87,2.51,1.504,4.342
			c1.521-2.347,2.114-4.509,2.828-6.607c5.406-15.852,10.775-31.713,16.239-47.541c0.545-1.579,0.459-3.688,3.03-4.072
			c5.339-0.797,6.408,0.308,4.577,5.394c-7.089,19.695-14.218,39.375-21.359,59.051c-1.348,3.715-3.612,4.787-7.367,3.821
			c-1.616-0.412-1.902-1.683-2.36-2.938c-3.225-8.806-6.49-17.597-9.689-26.411c-4.228-11.647-8.405-23.313-12.608-34.97
			C265.414,828.687,264.814,827.626,265.412,826.4z"/>
		<path fill-rule="evenodd" clip-rule="evenodd" fill="#7EA8D0" d="M512.09,832.337c1.5-0.102,2.143-1.458,3.152-2.246
			c7.989-6.25,21.747-6.307,29.673-0.222c1.791,1.375,1.901,2.321,0.321,3.948c-2.866,2.945-2.78,3.026-6.492,0.795
			c-12.151-7.308-26.231-0.141-27.124,14.104c-0.522,8.353-0.21,16.754-0.25,25.134c-0.026,5.534,0.046,11.065-0.024,16.597
			c-0.045,3.623-0.199,3.698-3.671,3.717c-3.593,0.019-3.889-0.131-3.896-3.486c-0.041-20.452,0.01-40.905-0.06-61.357
			c-0.01-2.577,0.836-3.575,3.47-3.518c3.699,0.085,3.861,0.08,4.19,3.256C511.491,830.148,510.939,831.395,512.09,832.337z"/>
		<path fill-rule="evenodd" clip-rule="evenodd" fill="#7EA8D0" d="M336.567,860.016c0-9.894-0.02-19.785,0.008-29.679
			c0.012-4.239,1.786-5.512,5.927-4.435c0.928,0.239,1.501,0.722,1.566,1.663c0.083,1.169,0.104,2.343,0.104,3.515
			c0.006,19.282,0.004,38.562,0.004,57.84c0,0.336,0.006,0.673-0.001,1.007c-0.088,3.936-2.325,5.395-6.179,4.107
			c-1.812-0.604-1.397-2.089-1.406-3.338c-0.044-6.539-0.022-13.078-0.024-19.617C336.567,867.392,336.567,863.703,336.567,860.016z
			"/>
		<path fill-rule="evenodd" clip-rule="evenodd" fill="#7EA8D0" d="M340.198,802.516c-4.601-0.028-4.622-0.051-4.562-4.743
			c0.052-4.206,0.059-4.211,5.159-4.15c4.299,0.05,4.299,0.05,4.283,4.499C345.062,802.547,345.062,802.547,340.198,802.516z"/>
		<path fill-rule="evenodd" clip-rule="evenodd" fill="#FFFFFE" d="M885.424,476.271c-12.924,0-25.849,0.012-38.774-0.007
			c-4.465-0.006-5.857-0.85-7.099-4.119c-1.365-3.593-0.449-8.72,1.819-10.895c1.396-1.341,3.064-1.163,4.724-1.166
			c8.058-0.014,16.113-0.007,24.17-0.007c17.964,0,35.924-0.009,53.884,0.006c4.502,0.004,5.859,0.821,7.096,4.095
			c1.364,3.613,0.452,8.713-1.82,10.891c-1.544,1.48-3.41,1.188-5.224,1.19C911.273,476.281,898.348,476.271,885.424,476.271z"/>
		<path fill-rule="evenodd" clip-rule="evenodd" fill="#FFFEFB" d="M840.048,179.407c0.182,2.421-0.178,3.489-1.078,4.37
			c-0.72,0.703-1.407,1.436-2.121,2.146c-16.271,16.207-32.748,32.217-48.708,48.726c-5.736,5.932-10.015,3.372-14.03-1.533
			c-3.051-3.728-2.646-5.985,0.828-9.449c16.624-16.568,33.246-33.136,49.898-49.674c1.955-1.941,3.676-4.551,7.223-2.89
			C836.236,173.06,839.241,175.897,840.048,179.407z"/>
		<path fill-rule="evenodd" clip-rule="evenodd" fill="#FFFEFB" d="M766.677,756.501c-1.316,0.189-2.378-1.177-3.519-2.782
			c-11.646-16.391-23.354-32.737-35.051-49.091c-1.464-2.045-2.91-4.104-4.459-6.081c-1.502-1.919-1.188-3.732,0.123-5.507
			c1.406-1.899,3.062-3.521,5.193-4.664c4.805-2.578,6.343-2.365,9.559,2.1c11.265,15.635,22.455,31.322,33.671,46.991
			c1.756,2.451,3.474,4.93,5.254,7.365c1.371,1.879,1.336,3.749,0.013,5.573C775.007,753.785,771.986,756.271,766.677,756.501z"/>
		<path fill-rule="evenodd" clip-rule="evenodd" fill="#FFFFFE" d="M564.864,859.176c0.046-4.855,0.062-9.704,1.417-14.445
			c2.487-8.726,8.139-13.007,17.319-12.998c9.174,0.011,14.756,4.229,17.06,13.188c2.597,10.088,2.541,20.192-0.326,30.24
			c-3.157,11.07-13.597,15.005-23.466,11.551c-4.049-1.417-6.665-4.299-8.632-7.961C564.929,872.594,564.824,865.9,564.864,859.176z
			"/>
		<path fill-rule="evenodd" clip-rule="evenodd" fill="#FFFEFB" d="M453.709,855.848c-5.517-0.004-11.033-0.05-16.547,0.021
			c-2.105,0.028-3.126-0.725-2.933-2.92c0.477-5.412,1.708-10.587,5.243-14.877c8.134-9.871,24.849-8.144,31.131,3.163
			c1.819,3.274,2.715,6.816,2.887,10.533c0.18,3.833,0.028,4.02-3.736,4.063C464.406,855.896,459.057,855.849,453.709,855.848z"/>
	</g>
</g>
</svg>
